<?xml version="1.0" encoding="UTF-8" standalone="no"?>
<!-- Generator: Adobe Illustrator 23.0.6, SVG Export Plug-In . SVG Version: 6.00 Build 0)  -->

<svg
   xmlns:dc="http://purl.org/dc/elements/1.1/"
   xmlns:cc="http://creativecommons.org/ns#"
   xmlns:rdf="http://www.w3.org/1999/02/22-rdf-syntax-ns#"
   xmlns:svg="http://www.w3.org/2000/svg"
   xmlns="http://www.w3.org/2000/svg"
   xmlns:sodipodi="http://sodipodi.sourceforge.net/DTD/sodipodi-0.dtd"
   xmlns:inkscape="http://www.inkscape.org/namespaces/inkscape"
   version="1.0"
   id="Calque_1"
   x="0px"
   y="0px"
   viewBox="0 0 405.84604 408.27927"
   xml:space="preserve"
   sodipodi:docname="minified_clear_bg.svg"
   width="405.84604"
   height="408.27927"
   inkscape:version="0.92.3 (2405546, 2018-03-11)"><metadata
   id="metadata21"><rdf:RDF><cc:Work
       rdf:about=""><dc:format>image/svg+xml</dc:format><dc:type
         rdf:resource="http://purl.org/dc/dcmitype/StillImage" /></cc:Work></rdf:RDF></metadata><defs
   id="defs19" /><sodipodi:namedview
   pagecolor="#ffffff"
   bordercolor="#666666"
   borderopacity="1"
   objecttolerance="10"
   gridtolerance="10"
   guidetolerance="10"
   inkscape:pageopacity="0"
   inkscape:pageshadow="2"
   inkscape:window-width="1920"
   inkscape:window-height="960"
   id="namedview17"
   showgrid="false"
   inkscape:zoom="0.236"
   inkscape:cx="202.9223"
   inkscape:cy="204.18035"
   inkscape:window-x="0"
   inkscape:window-y="27"
   inkscape:window-maximized="1"
   inkscape:current-layer="Calque_1" />
<style
   type="text/css"
   id="style2">
	.st0{fill:#33DB77;stroke:#33DB77;stroke-width:14.3607;stroke-miterlimit:10;}
	.st1{opacity:0.8;fill:#33DB77;stroke:#33DB77;stroke-width:14.3607;stroke-miterlimit:10;}
	.st2{opacity:0.5;fill:#33DB77;stroke:#33DB77;stroke-width:14.3607;stroke-miterlimit:10;}
	.st3{opacity:0.3;fill:#33DB77;stroke:#33DB77;stroke-width:14.3607;stroke-miterlimit:10;}
</style>
<g
   id="g14"
   transform="translate(-297.0777,-295.90109)">
	<g
   id="g12">
		<path
   class="st0"
   d="m 557.4,603.1 c -2.1,-36.7 -17,-77.1 -42,-113.6 -25,-36.5 -57.2,-65 -90.7,-80.3 -34,-15.5 -65.3,-15.4 -88.1,0.2 -22.8,15.6 -34.2,44.8 -32.1,82.1 2.1,36.7 17,77.1 42,113.6 25,36.5 57.2,65 90.7,80.3 17,7.7 33.2,11.6 48.1,11.6 15,0 28.6,-3.9 40,-11.7 22.8,-15.7 34.2,-44.9 32.1,-82.2 z m -42.1,67.4 C 476.8,696.8 407.7,663 361.2,595.1 338.5,562 324.6,525.8 322.1,493.2 c -2.5,-32 6.2,-56.5 24.5,-69 8.7,-5.9 19,-8.9 30.6,-8.9 12.9,0 27.3,3.7 42.6,11 29.5,14.2 58.2,40.2 80.9,73.3 46.5,67.9 53,144.6 14.6,170.9 z"
   id="path4"
   inkscape:connector-curvature="0"
   style="fill:#33db77;stroke:#33db77;stroke-width:14.36069965;stroke-miterlimit:10" />
		<path
   class="st1"
   d="m 561.4,458 c -25,-36.5 -57.2,-65 -90.7,-80.3 -34,-15.5 -65.3,-15.4 -88.1,0.2 -46.6,31.9 -42.1,119.7 9.9,195.7 39.2,57.2 94.3,91.7 139,91.7 14.7,0 28.3,-3.7 39.8,-11.6 C 617.9,621.8 613.5,534 561.4,458 Z m -0.1,181 c -38.5,26.3 -107.6,-7.5 -154.1,-75.4 -46.5,-67.9 -53,-144.6 -14.6,-171 38.5,-26.3 107.6,7.5 154.1,75.4 46.5,67.9 53.1,144.6 14.6,171 z"
   id="path6"
   inkscape:connector-curvature="0"
   style="opacity:0.8;fill:#33db77;stroke:#33db77;stroke-width:14.36069965;stroke-miterlimit:10" />
		<path
   class="st2"
   d="m 607.5,426.4 c -52,-76 -132.3,-111.9 -178.8,-80.1 -22.8,15.6 -34.2,44.8 -32.1,82.1 2.1,36.7 17,77.1 42,113.6 39.2,57.2 94.3,91.7 139,91.7 14.7,0 28.3,-3.7 39.8,-11.6 46.6,-31.9 42.1,-119.6 -9.9,-195.7 z m -0.1,181 c -18.3,12.5 -44.3,11.8 -73.2,-2.1 C 504.7,591.1 476,565.1 453.3,532 430.6,498.9 416.7,462.7 414.2,430.1 c -2.5,-32 6.2,-56.5 24.5,-69 18.3,-12.5 44.3,-11.8 73.2,2.1 29.5,14.2 58.2,40.2 80.9,73.3 22.7,33.1 36.6,69.3 39.1,101.9 2.5,32 -6.2,56.5 -24.5,69 z"
   id="path8"
   inkscape:connector-curvature="0"
   style="opacity:0.5;fill:#33db77;stroke:#33db77;stroke-width:14.36069965;stroke-miterlimit:10" />
		<path
   class="st3"
   d="m 695.5,508.5 c -2.1,-36.7 -17,-77.1 -42,-113.6 -25,-36.5 -57.2,-65 -90.7,-80.3 -34,-15.5 -65.3,-15.4 -88.1,0.2 -46.6,31.9 -42.1,119.7 9.9,195.7 25,36.5 57.2,65 90.7,80.3 17,7.7 33.2,11.6 48.1,11.6 15,0 28.6,-3.9 40,-11.7 22.9,-15.7 34.2,-44.9 32.1,-82.2 z m -42.1,67.4 c -18.3,12.5 -44.3,11.8 -73.2,-2.1 -29.5,-14.2 -58.2,-40.2 -80.9,-73.3 -22.7,-33.1 -36.6,-69.3 -39.1,-101.9 -2.5,-32 6.2,-56.5 24.5,-69 18.3,-12.5 44.3,-11.8 73.2,2.1 29.5,14.2 58.2,40.2 80.9,73.3 22.7,33.1 36.6,69.3 39.1,101.9 2.5,32 -6.2,56.5 -24.5,69 z"
   id="path10"
   inkscape:connector-curvature="0"
   style="opacity:0.3;fill:#33db77;stroke:#33db77;stroke-width:14.36069965;stroke-miterlimit:10" />
	</g>
</g>
</svg>