<?xml version="1.0" encoding="UTF-8" standalone="no"?>
<!-- Generator: Adobe Illustrator 23.0.6, SVG Export Plug-In . SVG Version: 6.00 Build 0)  -->

<svg
   xmlns:dc="http://purl.org/dc/elements/1.1/"
   xmlns:cc="http://creativecommons.org/ns#"
   xmlns:rdf="http://www.w3.org/1999/02/22-rdf-syntax-ns#"
   xmlns:svg="http://www.w3.org/2000/svg"
   xmlns="http://www.w3.org/2000/svg"
   xmlns:sodipodi="http://sodipodi.sourceforge.net/DTD/sodipodi-0.dtd"
   xmlns:inkscape="http://www.inkscape.org/namespaces/inkscape"
   version="1.0"
   id="Calque_1"
   x="0px"
   y="0px"
   viewBox="0 0 318.29999 426.13547"
   xml:space="preserve"
   sodipodi:docname="reduced_dark_bg.svg"
   width="318.29999"
   height="426.13547"
   inkscape:version="0.92.3 (2405546, 2018-03-11)"><metadata
   id="metadata33"><rdf:RDF><cc:Work
       rdf:about=""><dc:format>image/svg+xml</dc:format><dc:type
         rdf:resource="http://purl.org/dc/dcmitype/StillImage" /></cc:Work></rdf:RDF></metadata><defs
   id="defs31" /><sodipodi:namedview
   pagecolor="#ffffff"
   bordercolor="#666666"
   borderopacity="1"
   objecttolerance="10"
   gridtolerance="10"
   guidetolerance="10"
   inkscape:pageopacity="0"
   inkscape:pageshadow="2"
   inkscape:window-width="640"
   inkscape:window-height="480"
   id="namedview29"
   showgrid="false"
   inkscape:zoom="0.236"
   inkscape:cx="159.2"
   inkscape:cy="210.3"
   inkscape:window-x="0"
   inkscape:window-y="27"
   inkscape:window-maximized="0"
   inkscape:current-layer="Calque_1" />
<style
   type="text/css"
   id="style2">
	.st0{fill:#33DB77;stroke:#33DB77;stroke-width:11.1623;stroke-miterlimit:10;}
	.st1{opacity:0.8;fill:#33DB77;stroke:#33DB77;stroke-width:11.1623;stroke-miterlimit:10;}
	.st2{opacity:0.5;fill:#33DB77;stroke:#33DB77;stroke-width:11.1623;stroke-miterlimit:10;}
	.st3{opacity:0.3;fill:#33DB77;stroke:#33DB77;stroke-width:11.1623;stroke-miterlimit:10;}
	.st4{fill:#F4F4F4;}
</style>
<g
   id="g26"
   transform="translate(-340.8,-284.16452)">
	<g
   id="g12">
		<path
   class="st0"
   d="M 544.5,522.9 C 542.9,494.4 531.3,463 511.8,434.6 492.3,406.2 467.3,384 441.3,372.2 c -26.5,-12 -50.8,-12 -68.5,0.1 -17.7,12.1 -26.6,34.8 -24.9,63.8 1.6,28.5 13.2,59.9 32.7,88.3 19.4,28.4 44.5,50.6 70.5,62.4 13.2,6 25.8,9 37.4,9 11.7,0 22.2,-3 31.1,-9.1 17.7,-12.1 26.6,-34.7 24.9,-63.8 z m -32.7,52.4 C 481.9,595.8 428.2,569.5 392,516.7 374.4,491 363.6,462.8 361.6,437.5 c -1.9,-24.8 4.8,-43.9 19.1,-53.6 6.7,-4.6 14.8,-6.9 23.8,-6.9 10,0 21.3,2.9 33.1,8.5 22.9,11 45.3,31.3 62.9,57 36.1,52.8 41.2,112.4 11.3,132.8 z"
   id="path4"
   inkscape:connector-curvature="0"
   style="fill:#33db77;stroke:#33db77;stroke-width:11.16230011;stroke-miterlimit:10" />
		<path
   class="st1"
   d="m 547.7,410.1 c -19.4,-28.4 -44.5,-50.6 -70.5,-62.4 -26.5,-12 -50.8,-12 -68.5,0.1 -36.2,24.8 -32.7,93 7.7,152.1 30.4,44.5 73.3,71.3 108,71.3 11.4,0 22,-2.9 31,-9 36.2,-24.7 32.7,-93 -7.7,-152.1 z m -0.1,140.7 C 517.7,571.3 464,545 427.8,492.2 391.7,439.4 386.6,379.8 416.5,359.3 c 29.9,-20.5 83.6,5.8 119.8,58.6 36.1,52.8 41.2,112.5 11.3,132.9 z"
   id="path6"
   inkscape:connector-curvature="0"
   style="opacity:0.8;fill:#33db77;stroke:#33db77;stroke-width:11.16230011;stroke-miterlimit:10" />
		<path
   class="st2"
   d="m 583.5,385.6 c -40.5,-59.1 -102.8,-87 -139,-62.2 -17.7,12.1 -26.6,34.8 -24.9,63.8 1.6,28.5 13.2,59.9 32.7,88.3 30.4,44.5 73.3,71.3 108,71.3 11.4,0 22,-2.9 31,-9 36.1,-24.8 32.6,-93.1 -7.8,-152.2 z m -0.1,140.7 c -14.2,9.7 -34.4,9.2 -56.9,-1.6 -22.9,-11 -45.3,-31.3 -62.9,-57 -17.6,-25.7 -28.4,-53.9 -30.4,-79.2 -1.9,-24.8 4.8,-43.9 19.1,-53.6 14.2,-9.7 34.4,-9.2 56.9,1.6 22.9,11 45.3,31.3 62.9,57 17.6,25.7 28.4,53.9 30.4,79.2 1.9,24.8 -4.9,43.9 -19.1,53.6 z"
   id="path8"
   inkscape:connector-curvature="0"
   style="opacity:0.5;fill:#33db77;stroke:#33db77;stroke-width:11.16230011;stroke-miterlimit:10" />
		<path
   class="st3"
   d="m 651.9,449.4 c -1.6,-28.5 -13.2,-59.9 -32.7,-88.3 -19.5,-28.4 -44.5,-50.6 -70.5,-62.4 -26.5,-12 -50.8,-12 -68.5,0.1 -36.2,24.8 -32.7,93 7.7,152.1 19.4,28.4 44.5,50.6 70.5,62.4 13.2,6 25.8,9 37.4,9 11.7,0 22.2,-3 31.1,-9.1 17.8,-12.1 26.7,-34.8 25,-63.8 z m -32.7,52.4 c -14.2,9.7 -34.4,9.2 -56.9,-1.6 -22.9,-11 -45.3,-31.3 -62.9,-57 C 481.8,417.5 471,389.3 469,364 c -1.9,-24.8 4.8,-43.9 19.1,-53.6 14.2,-9.7 34.4,-9.2 56.9,1.6 22.9,11 45.3,31.3 62.9,57 17.6,25.7 28.4,53.9 30.4,79.2 1.9,24.8 -4.9,43.9 -19.1,53.6 z"
   id="path10"
   inkscape:connector-curvature="0"
   style="opacity:0.3;fill:#33db77;stroke:#33db77;stroke-width:11.16230011;stroke-miterlimit:10" />
	</g>
	<g
   id="g24">
		<path
   class="st4"
   d="m 383.5,679.5 c 2.3,-3.3 3.4,-6.9 3.4,-10.7 0,-4.1 -1,-7.8 -3,-10.8 -1.9,-3 -4.5,-5.3 -7.5,-7 -3,-1.6 -6.2,-2.4 -9.6,-2.4 h -26 v 60.1 H 355 v -20.4 h 7.8 l 11.5,20.4 16.9,0.1 -13.7,-23.6 c 2.4,-1.5 4.4,-3.4 6,-5.7 z m -28.4,-17.1 h 10.4 c 2.1,0 3.8,0.6 5.2,1.8 1.3,1.1 1.9,2.5 1.9,4.5 0,1.6 -0.5,2.9 -1.4,4.2 -0.8,1 -1.9,1.5 -3.5,1.5 h -12.6 z"
   id="path14"
   inkscape:connector-curvature="0"
   style="fill:#f4f4f4" />
		<polygon
   class="st4"
   points="448.2,694.7 422.3,694.7 422.3,684.8 443.9,684.8 443.9,670.9 422.3,670.9 422.3,662.4 448.2,662.4 448.2,648.5 408.1,648.5 408.1,708.6 448.2,708.6 "
   id="polygon16"
   style="fill:#f4f4f4" />
		<polygon
   class="st4"
   points="483.3,648.5 469.1,648.5 469.1,708.6 483.3,708.6 483.3,689.2 488.4,684.3 506.6,708.6 524.4,708.6 498.5,674.5 525.2,648.5 505.8,648.5 483.3,671 "
   id="polygon18"
   style="fill:#f4f4f4" />
		<path
   class="st4"
   d="m 645,648.5 v 20.7 c 0,3.8 0.1,7.9 0.2,12.3 0,0.8 0.1,1.5 0.1,2.2 L 618.9,648.4 H 607 v 60.1 h 14.2 V 683 c 0,-3 -0.1,-6 -0.4,-9 l 26.3,34.5 h 12 V 648.4 H 645 Z"
   id="path20"
   inkscape:connector-curvature="0"
   style="fill:#f4f4f4" />
		<path
   class="st4"
   d="m 592.1,666.8 c -1.4,-3.8 -3.5,-7.1 -6.2,-10 -2.7,-2.8 -5.9,-5.1 -9.5,-6.7 -3.6,-1.6 -7.7,-2.4 -12,-2.4 -4.3,0 -8.4,0.8 -12,2.4 -3.7,1.6 -6.9,3.9 -9.5,6.7 -2.7,2.8 -4.7,6.2 -6.2,10 -1.4,3.8 -2.2,7.9 -2.2,12.2 0,4.3 0.7,8.4 2.2,12.2 1.4,3.8 3.5,7.1 6.2,10 2.7,2.8 5.9,5.1 9.5,6.7 3.7,1.6 7.7,2.4 12,2.4 4.3,0 8.4,-0.8 12,-2.4 3.6,-1.6 6.8,-3.8 9.5,-6.7 2.7,-2.8 4.8,-6.2 6.2,-10 1.4,-3.8 2.2,-7.9 2.2,-12.2 0,-4.4 -0.7,-8.5 -2.2,-12.2 z M 580.2,679 c 0,3.4 -0.7,6.4 -2.1,9.1 -1.4,2.7 -3.2,4.7 -5.6,6.2 -2.4,1.5 -5,2.2 -8.1,2.2 -3.2,0 -5.8,-0.7 -8.2,-2.2 -2.4,-1.5 -4.2,-3.5 -5.6,-6.2 -1.4,-2.6 -2,-5.7 -2,-9.1 0,-3.4 0.7,-6.5 2,-9.1 1.3,-2.6 3.2,-4.7 5.6,-6.2 2.4,-1.5 5,-2.2 8.2,-2.2 3.1,0 5.8,0.7 8.1,2.2 2.4,1.5 4.2,3.6 5.6,6.2 1.4,2.6 2.1,5.7 2.1,9.1 z"
   id="path22"
   inkscape:connector-curvature="0"
   style="fill:#f4f4f4" />
	</g>
</g>
</svg>