<?xml version="1.0" encoding="UTF-8" standalone="no"?>
<!-- Generator: Adobe Illustrator 23.0.6, SVG Export Plug-In . SVG Version: 6.00 Build 0)  -->

<svg
   xmlns:dc="http://purl.org/dc/elements/1.1/"
   xmlns:cc="http://creativecommons.org/ns#"
   xmlns:rdf="http://www.w3.org/1999/02/22-rdf-syntax-ns#"
   xmlns:svg="http://www.w3.org/2000/svg"
   xmlns="http://www.w3.org/2000/svg"
   xmlns:sodipodi="http://sodipodi.sourceforge.net/DTD/sodipodi-0.dtd"
   xmlns:inkscape="http://www.inkscape.org/namespaces/inkscape"
   version="1.0"
   id="Calque_1"
   x="0px"
   y="0px"
   viewBox="0 0 876.70001 176.05199"
   xml:space="preserve"
   sodipodi:docname="whole_dark_bg.svg"
   width="876.70001"
   height="176.05199"
   inkscape:version="0.92.3 (2405546, 2018-03-11)"><metadata
   id="metadata3807"><rdf:RDF><cc:Work
       rdf:about=""><dc:format>image/svg+xml</dc:format><dc:type
         rdf:resource="http://purl.org/dc/dcmitype/StillImage" /><dc:title></dc:title></cc:Work></rdf:RDF></metadata><defs
   id="defs3805" /><sodipodi:namedview
   pagecolor="#ffffff"
   bordercolor="#666666"
   borderopacity="1"
   objecttolerance="10"
   gridtolerance="10"
   guidetolerance="10"
   inkscape:pageopacity="0"
   inkscape:pageshadow="2"
   inkscape:window-width="1920"
   inkscape:window-height="960"
   id="namedview3803"
   showgrid="false"
   fit-margin-top="0"
   fit-margin-left="0"
   fit-margin-right="0"
   fit-margin-bottom="0"
   inkscape:zoom="0.779"
   inkscape:cx="438.3"
   inkscape:cy="88.0978"
   inkscape:window-x="0"
   inkscape:window-y="27"
   inkscape:window-maximized="1"
   inkscape:current-layer="Calque_1" />
<style
   type="text/css"
   id="style3780">
	.st0{fill:#33DB77;stroke:#33DB77;stroke-width:6.1956;stroke-miterlimit:10;}
	.st1{opacity:0.8;fill:#33DB77;stroke:#33DB77;stroke-width:6.1956;stroke-miterlimit:10;}
	.st2{opacity:0.5;fill:#33DB77;stroke:#33DB77;stroke-width:6.1956;stroke-miterlimit:10;}
	.st3{opacity:0.3;fill:#33DB77;stroke:#33DB77;stroke-width:6.1956;stroke-miterlimit:10;}
	.st4{fill:#F4F4F4;}
</style>
<g
   id="g3800"
   transform="translate(-61.7,-412.04582)">
	<g
   id="g3790">
		<path
   class="st0"
   d="m 692.1,544.5 c -0.9,-15.8 -7.3,-33.3 -18.1,-49 -10.8,-15.8 -24.7,-28.1 -39.1,-34.6 -14.7,-6.7 -28.2,-6.6 -38,0.1 -9.8,6.7 -14.7,19.3 -13.8,35.4 0.9,15.8 7.3,33.3 18.1,49 10.8,15.8 24.7,28.1 39.1,34.6 7.3,3.3 14.3,5 20.8,5 6.5,0 12.3,-1.7 17.3,-5.1 9.7,-6.7 14.7,-19.3 13.7,-35.4 z M 674,573.6 c -16.6,11.4 -46.4,-3.2 -66.5,-32.5 -9.8,-14.3 -15.8,-29.9 -16.9,-44 -1.1,-13.8 2.7,-24.4 10.6,-29.8 3.7,-2.6 8.2,-3.8 13.2,-3.8 5.6,0 11.8,1.6 18.4,4.7 12.7,6.1 25.1,17.4 34.9,31.6 20.1,29.3 22.9,62.4 6.3,73.8 z"
   id="path3782"
   inkscape:connector-curvature="0"
   style="fill:#33db77;stroke:#33db77;stroke-width:6.19560003;stroke-miterlimit:10" />
		<path
   class="st1"
   d="m 693.9,481.9 c -10.8,-15.8 -24.7,-28.1 -39.1,-34.6 -14.7,-6.7 -28.2,-6.6 -38,0.1 -20.1,13.8 -18.2,51.6 4.3,84.4 16.9,24.7 40.7,39.6 60,39.6 6.3,0 12.2,-1.6 17.2,-5 20,-13.9 18,-51.7 -4.4,-84.5 z m -0.1,78.1 c -16.6,11.4 -46.4,-3.2 -66.5,-32.5 -20.1,-29.3 -22.9,-62.4 -6.3,-73.8 16.6,-11.4 46.4,3.2 66.5,32.5 20.1,29.3 22.9,62.4 6.3,73.8 z"
   id="path3784"
   inkscape:connector-curvature="0"
   style="opacity:0.8;fill:#33db77;stroke:#33db77;stroke-width:6.19560003;stroke-miterlimit:10" />
		<path
   class="st2"
   d="m 713.8,468.3 c -22.5,-32.8 -57.1,-48.3 -77.2,-34.5 -9.8,6.7 -14.7,19.3 -13.8,35.4 0.9,15.8 7.3,33.3 18.1,49 16.9,24.7 40.7,39.6 60,39.6 6.3,0 12.2,-1.6 17.2,-5 20,-13.9 18.1,-51.7 -4.3,-84.5 z m -0.1,78 c -7.9,5.4 -19.1,5.1 -31.6,-0.9 -12.7,-6.1 -25.1,-17.4 -34.9,-31.6 -9.8,-14.3 -15.8,-29.9 -16.9,-44 -1.1,-13.8 2.7,-24.4 10.6,-29.8 7.9,-5.4 19.1,-5.1 31.6,0.9 12.7,6.1 25.1,17.4 34.9,31.6 9.8,14.3 15.8,29.9 16.9,44 1.1,13.9 -2.7,24.4 -10.6,29.8 z"
   id="path3786"
   inkscape:connector-curvature="0"
   style="opacity:0.5;fill:#33db77;stroke:#33db77;stroke-width:6.19560003;stroke-miterlimit:10" />
		<path
   class="st3"
   d="m 751.8,503.7 c -0.9,-15.8 -7.3,-33.3 -18.1,-49 -10.8,-15.8 -24.7,-28.1 -39.1,-34.6 -14.7,-6.7 -28.2,-6.6 -38,0.1 -20.1,13.8 -18.2,51.6 4.3,84.4 10.8,15.8 24.7,28.1 39.1,34.6 7.3,3.3 14.3,5 20.8,5 6.5,0 12.3,-1.7 17.3,-5.1 9.7,-6.7 14.6,-19.3 13.7,-35.4 z m -18.2,29 c -7.9,5.4 -19.1,5.1 -31.6,-0.9 -12.7,-6.1 -25.1,-17.4 -34.9,-31.6 -9.8,-14.3 -15.8,-29.9 -16.9,-44 -1.1,-13.8 2.7,-24.4 10.6,-29.8 7.9,-5.4 19.1,-5.1 31.6,0.9 12.7,6.1 25.1,17.4 34.9,31.6 9.8,14.3 15.8,29.9 16.9,44 1,13.9 -2.7,24.4 -10.6,29.8 z"
   id="path3788"
   inkscape:connector-curvature="0"
   style="opacity:0.3;fill:#33db77;stroke:#33db77;stroke-width:6.19560003;stroke-miterlimit:10" />
	</g>
	<path
   class="st4"
   d="m 179.1,502.5 c 6.3,-9 9.4,-19 9.4,-29.6 0,-11.3 -2.8,-21.4 -8.2,-29.8 -5.4,-8.2 -12.3,-14.7 -20.7,-19.1 -8.3,-4.5 -17.2,-6.7 -26.3,-6.7 H 61.7 v 165.6 h 39.1 v -56.2 h 21.5 l 31.6,56.1 46.7,0.4 -37.7,-65 c 6.3,-4.1 11.8,-9.3 16.2,-15.7 z m -78.3,-47 h 28.7 c 5.7,0 10.4,1.6 14.3,4.9 3.6,3 5.2,6.9 5.2,12.3 0,4.3 -1.3,8.1 -4,11.5 -2.3,2.9 -5.2,4.2 -9.6,4.2 h -34.7 v -32.9 z"
   id="path3792"
   inkscape:connector-curvature="0"
   style="fill:#f4f4f4" />
	<polygon
   class="st4"
   points="357.2,544.6 286.1,544.6 286.1,517.2 345.5,517.2 345.5,479 286.1,479 286.1,455.5 357.2,455.5 357.2,417.3 247,417.3 247,582.8 357.2,582.8 "
   id="polygon3794"
   style="fill:#f4f4f4" />
	<polygon
   class="st4"
   points="454.1,417.3 415,417.3 415,582.8 454.1,582.8 454.1,529.3 468,515.8 518.1,582.8 567.1,582.8 495.8,488.7 569.5,417.3 516,417.3 454.1,479.2 "
   id="polygon3796"
   style="fill:#f4f4f4" />
	<path
   class="st4"
   d="m 899.2,417.3 v 57.1 c 0,10.5 0.2,21.9 0.6,33.9 0.1,2.1 0.2,4.1 0.3,6.2 l -72.6,-97.2 h -32.7 v 165.6 h 39.1 v -70.2 c 0,-8.2 -0.4,-16.6 -1,-24.8 l 72.4,95 h 33.1 V 417.3 Z"
   id="path3798"
   inkscape:connector-curvature="0"
   style="fill:#f4f4f4" />
</g>
</svg>